<svg xmlns="http://www.w3.org/2000/svg" width="83.672" height="83.672" viewBox="0 0 83.672 83.672"><defs><style>.a{fill:#fff;}</style></defs><g transform="translate(-1 -1)"><g transform="translate(1 1)"><path class="a" d="M57.876,13.392A13.453,13.453,0,0,0,39.649,10.4l1.511,2.236a10.761,10.761,0,0,1,14.562,2.368l-3.872-.466-.323,2.679,7.862.947,2.278-8.5-2.607-.7Z" transform="translate(12.51 1.481)"/><path class="a" d="M39,20.39a10.705,10.705,0,0,1,.834-4.084l1.529,3.578,2.482-1.061L40.73,11.541l-8.5,2.279.7,2.607,4.386-1.175a13.507,13.507,0,0,0,6.467,17.222l1.205-2.416A10.742,10.742,0,0,1,39,20.39Z" transform="translate(9.915 2.685)"/><path class="a" d="M47.481,28.789l2.35-3.132-2.159-1.619L42.92,30.372,49.145,36.6l1.908-1.908-3.225-3.225A13.506,13.506,0,0,0,59.546,18.1h-2.7A10.8,10.8,0,0,1,47.481,28.789Z" transform="translate(13.653 4.977)"/><path class="a" d="M84.672,25.292A24.292,24.292,0,1,0,45.145,44.185H23.736l-2.7-16.195H10.653l-2.7,16.195H5.564L1,53.314V84.672H73.875V53.314l-3.059-6.119A24.3,24.3,0,0,0,84.672,25.292Zm-65.921,5.4.449,2.7H12.49l.449-2.7Zm-6.711,5.4h7.61l1.35,8.1H10.69Zm6.5,45.885h-5.4v-10.8h5.4Zm24.292,0H32.04v-10.8h10.8Zm18.894,0h-5.4v-10.8h5.4Zm2.7,0v-13.5h-10.8v13.5h-8.1v-13.5H29.34v13.5h-8.1v-13.5h-10.8v13.5H3.7V54.982H71.176V81.973Zm5.914-29.69H4.533l2.7-5.4H49.3a23.993,23.993,0,0,0,19.012,1.341Zm-9.962-5.4A21.593,21.593,0,1,1,81.973,25.292,21.618,21.618,0,0,1,60.38,46.885Z" transform="translate(-1 -1)"/><path class="a" d="M37,51.1H55.894V43H37Zm8.1-2.7V45.7h2.7v2.7Zm8.1,0H50.5V45.7h2.7ZM39.7,45.7h2.7v2.7H39.7Z" transform="translate(11.584 13.681)"/><path class="a" d="M5,51.1H23.894V43H5Zm8.1-2.7V45.7h2.7v2.7Zm8.1,0H18.5V45.7h2.7ZM7.7,45.7h2.7v2.7H7.7Z" transform="translate(0.398 13.681)"/><path class="a" d="M21,51.1H39.894V43H21Zm8.1-2.7V45.7h2.7v2.7Zm8.1,0H34.5V45.7h2.7ZM23.7,45.7h2.7v2.7H23.7Z" transform="translate(5.991 13.681)"/><path class="a" d="M18.795,14.355c2.054,1.028,3.3,1.733,3.3,2.843s-1.247,1.812-3.3,2.839C16.659,21.106,14,22.433,14,25.292h2.7c0-1.109,1.247-1.812,3.3-2.839,2.136-1.067,4.795-2.4,4.795-5.254S22.138,13.01,20,11.941c-2.055-1.027-3.3-1.731-3.3-2.842S17.947,7.283,20,6.256C22.138,5.189,24.8,3.858,24.8,1H22.1c0,1.111-1.247,1.815-3.3,2.842C16.659,4.911,14,6.24,14,9.1S16.659,13.288,18.795,14.355Z" transform="translate(3.544 -1)"/><path class="a" d="M11.795,20.038C9.659,21.106,7,22.433,7,25.292H9.7c0-1.109,1.247-1.812,3.3-2.839,2.136-1.067,4.795-2.4,4.795-5.254S15.138,13.01,13,11.941C10.946,10.914,9.7,10.209,9.7,9.1S10.947,7.283,13,6.256C15.138,5.189,17.8,3.858,17.8,1H15.1c0,1.111-1.247,1.815-3.3,2.842C9.659,4.911,7,6.24,7,9.1s2.659,4.189,4.795,5.256c2.054,1.028,3.3,1.733,3.3,2.843S13.85,19.011,11.795,20.038Z" transform="translate(1.097 -1)"/></g></g></svg>