<svg xmlns="http://www.w3.org/2000/svg" width="81.055" height="81.055" viewBox="0 0 81.055 81.055"><defs><style>.a{fill:#fff;}</style></defs><g transform="translate(-2.702 -16)"><path class="a" d="M95.7,38.965H64.633a1.351,1.351,0,0,0-1.351,1.351V58.1c-.374-.205-.754-.4-1.141-.578l-6.511-3a13.429,13.429,0,0,0,2.248-7.451V26.43l7.182-2.394a1.351,1.351,0,0,0-.079-2.587l-20.264-5.4a1.351,1.351,0,0,0-.7,0l-20.264,5.4a1.351,1.351,0,0,0-.079,2.587l1.778.593v7.582a1.351,1.351,0,0,0,2.7,0V25.529l2.7.9V47.071a13.429,13.429,0,0,0,2.248,7.451l-6.511,3A18.3,18.3,0,0,0,16,74.089V95.7a1.351,1.351,0,0,0,1.351,1.351H71.388A1.351,1.351,0,0,0,72.739,95.7V79.873a3.505,3.505,0,0,0,0-3.461V74.089a18.167,18.167,0,0,0-1.9-8.106H74.09v4.053a1.351,1.351,0,0,0,2.1,1.124l7.765-5.177H95.7a1.351,1.351,0,0,0,1.351-1.351V40.316A1.351,1.351,0,0,0,95.7,38.965ZM33.562,32.734l10.38,3.46a1.351,1.351,0,0,0,.855,0l10.38-3.46V47.071a10.807,10.807,0,0,1-21.615,0ZM44.369,60.58a13.445,13.445,0,0,0,4.587-.8L44.369,66.33l-4.587-6.553A13.445,13.445,0,0,0,44.369,60.58Zm0-41.831L59.93,22.9l-15.56,5.187L28.809,22.9Zm-.427,12.042a1.351,1.351,0,0,0,.855,0l10.38-3.46v2.556l-10.807,3.6-10.807-3.6V27.331ZM18.7,94.353V84.887a23.127,23.127,0,0,0,9.466,9.466Zm39.483-14a1.351,1.351,0,0,0,1.045.494h2.93a5.4,5.4,0,0,0,2.78-.77L69.3,77.461a.795.795,0,0,1,.971,1.244l-5.17,5.17a8.052,8.052,0,0,1-5.731,2.374H49.773v-7.41l7.807-5.577a.861.861,0,0,1,1.344.869l-1.02,5.1a1.351,1.351,0,0,0,.28,1.121Zm-8.412,14v-5.4h9.592a10.737,10.737,0,0,0,7.642-3.165l3.03-3.03v11.6ZM70.037,74.089v.573a3.487,3.487,0,0,0-2.132.481L63.55,77.757a2.7,2.7,0,0,1-1.39.385H60.878l.7-3.482a3.563,3.563,0,0,0-5.564-3.6l-8.021,5.729H36.264a4.057,4.057,0,0,1-4.053-4.053v-2.7h-2.7v2.7a6.762,6.762,0,0,0,6.755,6.755H47.071v14.86H38.966A20.287,20.287,0,0,1,18.7,74.089,15.586,15.586,0,0,1,27.73,59.98l6.724-3.1,8.809,12.584a1.351,1.351,0,0,0,2.213,0l8.809-12.584,6.724,3.1a15.6,15.6,0,0,1,2.273,1.292v3.361a1.351,1.351,0,0,0,1.351,1.351h3.12a15.477,15.477,0,0,1,2.283,8.106ZM94.354,63.282H83.546a1.351,1.351,0,0,0-.749.227l-6.005,4V64.633a1.351,1.351,0,0,0-1.351-1.351H65.984V41.667H94.354Z" transform="translate(-13.298)"/><rect class="a" width="4" height="2" transform="translate(61 45.989)"/><rect class="a" width="10" height="2" transform="translate(67 45.989)"/><rect class="a" width="12" height="3" transform="translate(57 50.989)"/><rect class="a" width="6" height="3" transform="translate(71 50.989)"/><rect class="a" width="6" height="2" transform="translate(57 56.989)"/><rect class="a" width="11" height="2" transform="translate(66 56.989)"/><rect class="a" width="5" height="3" transform="translate(23 38.989)"/><path class="a" d="M168,198.755h1.351A4.057,4.057,0,0,0,173.4,194.7V192h-2.7v2.7a1.352,1.352,0,0,1-1.351,1.351H168Z" transform="translate(-139.631 -146.28)"/><circle class="a" cx="1.5" cy="1.5" r="1.5" transform="translate(24 42.989)"/><rect class="a" width="5" height="3" transform="translate(34 38.989)"/><circle class="a" cx="1.5" cy="1.5" r="1.5" transform="translate(35 42.989)"/></g></svg>