<svg xmlns="http://www.w3.org/2000/svg" width="83.733" height="86.549" viewBox="0 0 83.733 86.549"><defs><style>.a{fill:#fff;}</style></defs><g transform="translate(-8.167 -6.751)"><path class="a" d="M19.6,26.5c.8,5.2,5.3,8.8,10,9.6H30a2.745,2.745,0,0,0,1.3-.2,12.118,12.118,0,0,0,9.1-9.4c1.5.1,2.6-.8,3.2-2.9.6-2.9.7-4.9-1.9-4.8C43,8.9,36.8,14.2,38,9.9c1.2-4.2-22.1-6.6-19.6,8.9-2.1-.4-3,.7-2.3,4C16.7,25.6,17.8,26.8,19.6,26.5Z"/><path class="a" d="M47.8,27a8.073,8.073,0,0,0,6.7,6.4h.3a2.769,2.769,0,0,0,.9-.1A8.212,8.212,0,0,0,61.8,27c1,.1,1.7-.6,2.1-1.9.4-1.9.5-3.3-1.2-3.2.9-6.6-3.3-3.1-2.5-5.9s-14.8-4.4-13.1,6c-1.4-.3-2,.5-1.5,2.7C45.8,26.5,46.6,27.2,47.8,27Z"/><path class="a" d="M33,49.5l.4-1.1a.616.616,0,0,0-.1-.7l-2-3.3c-.1-.2-.1-.4.1-.5,3.6-3.1,2.1-5.6-1.6-5.9h0c-3.7.3-5.3,2.8-1.6,5.9a.348.348,0,0,1,.1.5l-1.8,3.1a.637.637,0,0,0,0,.6l.5,1.3a.1.1,0,0,0,.1.1c.7,2,1.4,3.9,2,5.3V55h2v-.2c.5-1.4,1.2-3.3,2-5.3C33,49.6,33,49.6,33,49.5Z"/><path class="a" d="M24.9,49.2a.1.1,0,0,0-.1-.1l-3.6-9.3a.55.55,0,0,0-.5-.3,36.313,36.313,0,0,0-9.6,3.7c-2.4,1.4-3.3,6.4-2.8,9.5v.1c.5,1.4,1.2,2.2,2.2,2.4H26.8c.2,0,.3-.1.2-.3C26.5,53.4,25.7,51.4,24.9,49.2Z"/><path class="a" d="M48.9,43.1c-2.4-1.5-5.8-2.6-9.6-3.7-.2-.1-.4,0-.5.3L35.2,49a.1.1,0,0,1-.1.1c-.8,2.2-1.6,4.2-2.1,5.7,0,.1.1.3.2.3H49.5c1-.2,1.7-1.1,2.2-2.4v-.1C52.2,49.5,51.3,44.5,48.9,43.1Z"/><path class="a" d="M68.1,38.7a18.408,18.408,0,0,0-3.1-2,11.669,11.669,0,0,0-5.2-1.2H58.1a1.23,1.23,0,0,0-1.1.7l-2.5,5.2-2.7-5.5a1.23,1.23,0,0,0-1.1-.7H49.6a11.7,11.7,0,0,0-4.9,1.1,19.649,19.649,0,0,0-2.5,1.3.388.388,0,0,0,.1.7,35.486,35.486,0,0,1,8.5,3.8,7.578,7.578,0,0,1,3,5.5.858.858,0,0,0,.6.7H68.3c.7-.2,1.2-.9,1.6-2.3h0C70.4,43,69.8,40,68.1,38.7Z"/><path class="a" d="M42,64.7H35.4a3.159,3.159,0,0,0-3.2,3.2V90.1a3.159,3.159,0,0,0,3.2,3.2H42a3.159,3.159,0,0,0,3.2-3.2V67.8A3.272,3.272,0,0,0,42,64.7Z"/><path class="a" d="M18.9,74H12.3a3.159,3.159,0,0,0-3.2,3.2V90.1a3.159,3.159,0,0,0,3.2,3.2h6.6a3.159,3.159,0,0,0,3.2-3.2V77.2A3.222,3.222,0,0,0,18.9,74Z"/><path class="a" d="M88.7,22.4H82.1a3.159,3.159,0,0,0-3.2,3.2V90.1a3.159,3.159,0,0,0,3.2,3.2h6.6a3.159,3.159,0,0,0,3.2-3.2V25.6A3.363,3.363,0,0,0,88.7,22.4Z"/><path class="a" d="M65.1,55.7H58.5a3.159,3.159,0,0,0-3.2,3.2V90.1a3.159,3.159,0,0,0,3.2,3.2h6.6a3.159,3.159,0,0,0,3.2-3.2V58.9A3.289,3.289,0,0,0,65.1,55.7Z"/></g></svg>