<svg xmlns="http://www.w3.org/2000/svg" width="83.639" height="73.183" viewBox="0 0 83.639 73.183"><defs><style>.a{fill:#fff;}</style></defs><g transform="translate(0 -4)"><g transform="translate(0 4)"><path class="a" d="M70.57,4h-57.5A13.083,13.083,0,0,0,0,17.069V56.274A13.083,13.083,0,0,0,13.069,69.343H32.9l7.075,7.075a2.614,2.614,0,0,0,3.7,0l7.075-7.075H70.57A13.083,13.083,0,0,0,83.639,56.274V17.069A13.083,13.083,0,0,0,70.57,4Zm7.841,52.274a7.849,7.849,0,0,1-7.841,7.841H49.661a2.613,2.613,0,0,0-1.848.765l-5.994,5.992-5.993-5.992a2.614,2.614,0,0,0-1.848-.766H13.069a7.849,7.849,0,0,1-7.841-7.841V17.069a7.849,7.849,0,0,1,7.841-7.841h57.5a7.849,7.849,0,0,1,7.841,7.841Z" transform="translate(0 -4)"/><path class="a" d="M37.132,14.439a2.614,2.614,0,0,0-4.063,2.175c0,3.779-2.111,5.66-5.553,8.415C24.166,27.706,20,31.04,20,37.523A15.689,15.689,0,0,0,34.881,53.165c.261.026.531.041.8.041s.537-.014.8-.041A15.689,15.689,0,0,0,51.365,37.523C51.365,29.391,45.644,20.115,37.132,14.439ZM33.069,45.364A9.748,9.748,0,0,1,36.4,39.373a17.6,17.6,0,0,0,.863,1.934A7.571,7.571,0,0,1,38.3,45.364a2.614,2.614,0,1,1-5.227,0Zm10.425-.915a12.7,12.7,0,0,0-1.553-5.489A7.571,7.571,0,0,1,40.91,34.91a2.614,2.614,0,0,0-3.79-2.338c-5.595,2.8-8.8,8.011-9.229,11.905a10.4,10.4,0,0,1-2.663-6.954c0-3.779,2.111-5.66,5.553-8.415,2.432-1.945,5.3-4.236,6.681-7.828C42.7,25.922,46.137,32.2,46.137,37.523a10.409,10.409,0,0,1-2.644,6.926Z" transform="translate(6.137 -0.931)"/></g></g></svg>