<svg width="14" height="12" viewBox="0 0 14 12" fill="none" xmlns="http://www.w3.org/2000/svg">
<path d="M13.6654 4.666V11.3333C13.6654 11.5101 13.5951 11.6797 13.4701 11.8047C13.3451 11.9298 13.1755 12 12.9987 12H7.66536V4.666H13.6654ZM6.33203 8.666V12H0.998698C0.821887 12 0.652318 11.9298 0.527293 11.8047C0.402269 11.6797 0.332031 11.5101 0.332031 11.3333V8.666H6.33203ZM6.33203 0V7.33267H0.332031V0.666667C0.332031 0.489856 0.402269 0.320286 0.527293 0.195262C0.652318 0.0702379 0.821887 0 0.998698 0H6.33203ZM12.9987 0C13.1755 0 13.3451 0.0702379 13.4701 0.195262C13.5951 0.320286 13.6654 0.489856 13.6654 0.666667V3.33267H7.66536V0H12.9987Z" fill="#0061AF"/>
</svg>
